<svg xmlns="http://www.w3.org/2000/svg" viewBox="0 0 1140.9 292.6"><defs><style>.cls-1{fill:#265aa7;}.cls-2{fill:#fff;}.cls-3{fill:#fcc800;}</style></defs><g id="Camada_2" data-name="Camada 2"><g id="Layer_1" data-name="Layer 1"><path class="cls-1" d="M1127,292.6H86a86,86,0,0,1-86-86V13.9A13.87,13.87,0,0,1,13.9,0h1041a86,86,0,0,1,86,86V278.7A14,14,0,0,1,1127,292.6Z"/><path class="cls-2" d="M270.8,159.1h26.4a8.71,8.71,0,0,1,8.7,8.7v27.8c0,19.2-5.5,33.5-16.4,42.8-9.6,8-22.4,12-38.5,12q-33,0-46.5-20.4a49.88,49.88,0,0,1-8.1-24.3c-.4-5.3-.6-11.9-.6-19.7V101.5c0-17.3,2.2-29.6,6.7-36.9Q216.15,42.1,253,42.1q53,0,53,53.9v17.2a8.71,8.71,0,0,1-8.7,8.7H270.9a8.71,8.71,0,0,1-8.7-8.7V101.5c0-8-.5-13.4-1.6-16.1-1.6-3.8-4.7-5.8-9.5-5.8-5.1,0-8.6,2.2-10.4,6.7q-1.5,3.75-1.5,15.3v84.5q0,15.15,2.1,19.5a9.51,9.51,0,0,0,9.3,5.9c4.8,0,8.1-2.2,9.9-6.5,1.1-2.8,1.6-9.1,1.6-19V167.8A8.71,8.71,0,0,1,270.8,159.1Z"/><path class="cls-2" d="M323.7,199.4V98.3q0-33.6,20.7-47.1c9.1-5.9,20.5-8.9,34.3-8.9q55.05,0,55.1,56V202.1c0,15.6-5.4,27.7-16.3,36.3-10.1,8-23.1,12-39.2,12q-28.65,0-43.5-17.3C327.4,224.5,323.7,213.3,323.7,199.4Zm66.6-14.7V101.3c0-9.7-.9-15.9-2.7-18.8s-4.6-4.1-8.6-4.1a10.13,10.13,0,0,0-8.3,3.6c-2.4,3.1-3.6,9.5-3.6,19.4v84.1c0,8.7.5,14.5,1.6,17.5,1.9,5.1,5.4,7.7,10.5,7.7,4.4,0,7.5-2.1,9.2-6.4C389.7,201.4,390.3,194.9,390.3,184.7Z"/><path class="cls-2" d="M456.1,238.6V54.1a8.75,8.75,0,0,1,8.8-8.8h25.9a8.75,8.75,0,0,1,8.8,8.8V238.6a8.75,8.75,0,0,1-8.8,8.8H464.9A8.81,8.81,0,0,1,456.1,238.6Z"/><path class="cls-2" d="M695.6,54.2V238.5a8.81,8.81,0,0,1-8.8,8.8H661.1a8.81,8.81,0,0,1-8.8-8.8V156.9q.6-19.5,3-64.3L630.3,240a8.9,8.9,0,0,1-8.7,7.4h-24a8.81,8.81,0,0,1-8.7-7.4L564.5,93.3c.5,11.6.9,21.6,1.3,29.9.9,17.3,1.3,28.8,1.3,34.5v80.8a8.81,8.81,0,0,1-8.8,8.8H532.7a8.81,8.81,0,0,1-8.8-8.8V54.1a8.81,8.81,0,0,1,8.8-8.8h52.4a8.81,8.81,0,0,1,8.7,7.4l9,53.6c2.4,15,4.6,33.6,6.8,55.7,2.5-24.3,4.8-42.9,7-56l8.8-52.8a8.89,8.89,0,0,1,8.6-7.4l52.7-.5A8.92,8.92,0,0,1,695.6,54.2Z"/><path class="cls-2" d="M719.9,238.5V54.2a8.92,8.92,0,0,1,8.9-8.9h53.1c12.9,0,22.2,1.6,27.7,4.9,6.2,3.6,10.8,9.2,13.6,17s4.3,18.1,4.3,31c0,14-1.3,23.6-4,28.7-1.9,3.5-5.5,6.1-10.8,8,5.8,1.3,10.1,5.3,12.7,12a46.48,46.48,0,0,1,2.7,14.7c.1,2.4.1,11.4.1,26.9,0,17.8-1.1,29.3-3.4,34.5-4,9.7-10.5,16.5-19.2,20.4-6.1,2.7-14.6,4-25.3,4H728.8A8.92,8.92,0,0,1,719.9,238.5Zm43.4-122.8H772c4.8,0,8.3-1.6,10.5-4.7,1.7-2.6,2.5-6.8,2.5-12.6,0-6.5-1-11-3-13.3s-5.1-3.6-9.3-3.6h-9.5v34.2Zm0,93.8h8.6c6,0,10-2,12-6.1,1.9-3.8,2.8-12.9,2.8-27.2,0-10.8-1.3-17.9-4-21.3-2.2-2.8-6-4.1-11.4-4.1h-8Z"/><path class="cls-2" d="M849.3,238.6V54a8.71,8.71,0,0,1,8.7-8.7h53.4c17.5,0,30,4.6,37.5,13.9,6.2,7.7,9.3,20.2,9.3,37.6,0,19.5-2.9,32.3-8.7,38.3-2.9,3.1-6.8,5.2-11.8,6.5,5.2,1.2,9.2,3.6,11.8,7.1a25.67,25.67,0,0,1,4.1,9.9c.7,3.2,1,8.3,1,15.4v64.5a8.71,8.71,0,0,1-8.7,8.7H920.2a8.71,8.71,0,0,1-8.7-8.7V174.8c0-8-.9-13.3-2.8-16-2.5-3.3-6.4-4.9-11.7-4.9-1,0-2.4.1-4.1.1v84.4a8.71,8.71,0,0,1-8.7,8.7h-26A8.35,8.35,0,0,1,849.3,238.6ZM892.9,118h8.7c10.1,0,15.1-5.6,15.1-16.7a33.2,33.2,0,0,0-1.9-11.8c-1.9-4.6-6.1-7-12.6-7h-9.3V118Z"/><path class="cls-2" d="M1036.8,239.2l-1.7-20.6h-23.4l-2.9,21.1a8.77,8.77,0,0,1-8.8,7.6H975.8a8.92,8.92,0,0,1-8.8-10.1L992.9,52.8a8.84,8.84,0,0,1,8.8-7.6h42.8a8.92,8.92,0,0,1,8.8,7.6l25.9,184.4a8.92,8.92,0,0,1-8.8,10.1h-24.9A8.79,8.79,0,0,1,1036.8,239.2ZM1015,180.4h16.3l-1.8-20.3c-3.6-47.5-5.6-75.4-6.2-83.8q-2.55,38.1-6.5,83.4Z"/><path class="cls-3" d="M216,124a4.08,4.08,0,0,0-2.4-3,5.28,5.28,0,0,0-2.5-.4H164.4V89a3.18,3.18,0,0,1-.3-.9h0a10.45,10.45,0,0,0-6.9-7.1c-3.1-1.1-6.2-2.1-9.3-3.1-8.4-2.8-16.9-5.6-25.3-8.4a7.39,7.39,0,0,0-3.6-.3,4.08,4.08,0,0,0-3,2.4,5.28,5.28,0,0,0-.4,2.5v43.4a2.77,2.77,0,0,0-.1.9v5.1H81.2a3.18,3.18,0,0,1-.9.3,10.6,10.6,0,0,0-7.2,6.9C72,133.8,71,136.9,70,140c-2.8,8.4-5.6,16.9-8.4,25.3a7.39,7.39,0,0,0-.3,3.6,4.08,4.08,0,0,0,2.4,3,5.28,5.28,0,0,0,2.5.4h46.7v31.6a3.18,3.18,0,0,1,.3.9h0a10.45,10.45,0,0,0,6.9,7.1c3.1,1.1,6.2,2.1,9.3,3.1,8.4,2.8,16.9,5.6,25.3,8.4a7.39,7.39,0,0,0,3.6.3,4.08,4.08,0,0,0,3-2.4,5.28,5.28,0,0,0,.4-2.5V175.4a2.77,2.77,0,0,0,.1-.9v-5.1h34.4a3.18,3.18,0,0,1,.9-.3,10.6,10.6,0,0,0,7.2-6.9c1.1-3.1,2.1-6.2,3.1-9.3,2.8-8.4,5.6-16.9,8.4-25.3A6.33,6.33,0,0,0,216,124Z"/><path class="cls-1" d="M157,226.2a11.77,11.77,0,0,1-3.1-.5c-7.2-2.4-14.5-4.8-21.7-7.2l-3.6-1.2c-.9-.3-1.8-.6-2.8-.9-2.2-.7-4.4-1.4-6.6-2.2a13,13,0,0,1-8.3-8.5l-.1-.1-.1-.6-.3-.3v-30H66.3a8.21,8.21,0,0,1-3.6-.7,6.62,6.62,0,0,1-3.7-4.7,8.65,8.65,0,0,1,.3-5c2.7-8,5.3-16.1,8-24.1l.4-1.2c.3-.9.6-1.8.9-2.8.7-2.2,1.4-4.4,2.2-6.6a13,13,0,0,1,8.8-8.4c.1,0,.3-.1.4-.1l.3-.3h32.9v-2.6a4.87,4.87,0,0,1,.1-1.2V73.9a8.21,8.21,0,0,1,.7-3.6,6.62,6.62,0,0,1,4.7-3.7,8.65,8.65,0,0,1,5,.3c7.4,2.4,14.8,4.9,22.1,7.3l3.2,1c.9.3,1.9.6,2.8.9,2.2.7,4.4,1.4,6.6,2.2a13.4,13.4,0,0,1,8.4,8.5l.1.3.1.3.3.3v30h44.1a8.21,8.21,0,0,1,3.6.7,6.62,6.62,0,0,1,3.7,4.7h0a8.65,8.65,0,0,1-.3,5c-2.7,8.2-5.4,16.4-8.2,24.6l-.2.7c-.3.9-.6,1.9-.9,2.8-.7,2.2-1.4,4.4-2.2,6.6a13,13,0,0,1-8.8,8.4c-.1,0-.3.1-.4.1l-.3.3H164.7v2.6a4.87,4.87,0,0,1-.1,1.2v43.1a8.21,8.21,0,0,1-.7,3.6,6.62,6.62,0,0,1-4.7,3.7A6.43,6.43,0,0,1,157,226.2Zm-41.3-22a8.16,8.16,0,0,0,5.2,5.2c2.1.8,4.4,1.5,6.5,2.2.9.3,1.9.6,2.8.9l3.6,1.2c7.2,2.4,14.5,4.8,21.7,7.2a4.4,4.4,0,0,0,2.2.2,1.74,1.74,0,0,0,1.3-1,4.64,4.64,0,0,0,.2-1.4V175l.1-.4h0v-7.7h36.3a3.09,3.09,0,0,1,.8-.2h-.1a8.06,8.06,0,0,0,5.6-5.3c.8-2.1,1.5-4.3,2.2-6.5.3-.9.6-1.9.9-2.8l.2-.7c2.7-8.2,5.4-16.4,8.2-24.6a4.4,4.4,0,0,0,.2-2.2,1.74,1.74,0,0,0-1-1.3,4.64,4.64,0,0,0-1.4-.2H162.1V89.5c-.1-.3-.1-.6-.2-.7l-.1-.2v-.2a8.16,8.16,0,0,0-5.2-5.2c-2.1-.8-4.3-1.5-6.5-2.2-.9-.3-1.9-.6-2.8-.9l-3.2-1c-7.4-2.4-14.8-4.9-22.1-7.3a4.4,4.4,0,0,0-2.2-.2,1.74,1.74,0,0,0-1.3,1,4.64,4.64,0,0,0-.2,1.4v43.8l-.1.4h0v7.7H81.9a3.09,3.09,0,0,1-.8.2h0a8.32,8.32,0,0,0-5.5,5.3c-.8,2.1-1.5,4.4-2.2,6.5-.3.9-.6,1.9-.9,2.8l-.4,1.2c-2.7,8-5.3,16.1-8,24.1a4.4,4.4,0,0,0-.2,2.2,1.74,1.74,0,0,0,1,1.3,4.64,4.64,0,0,0,1.4.2h49.1v33.5c.1.2.1.5.2.6l.1.2v.2ZM81.2,126Z"/></g></g></svg>